<svg
      version="1.1"
      xmlns="http://www.w3.org/2000/svg"
      xmlns:xlink="http://www.w3.org/1999/xlink"
      width="14.7363"
      height="14.8462"
    >
      <g>
        <rect height="14.8462" opacity="0" width="14.7363" x="0" y="0" />
        <path
          d="M11.5063 9.94629C7.4707 9.94629 4.96582 7.51465 4.96582 3.61084C4.96582 2.49756 5.14893 1.51611 5.41992 0.98877C5.52979 0.776367 5.55176 0.673828 5.55176 0.527344C5.55176 0.285645 5.32471 0 5.01709 0C4.9585 0 4.81934 0.0219727 4.61426 0.102539C1.9043 1.20117 0 4.05762 0 7.13379C0 11.5796 3.22998 14.8169 7.67578 14.8169C10.8618 14.8169 13.4473 13.147 14.6338 10.4077C14.7217 10.2173 14.7363 10.0562 14.7363 9.97559C14.7363 9.67529 14.48 9.47021 14.2529 9.47021C14.1357 9.47021 14.0479 9.47754 13.8721 9.54346C13.2788 9.78516 12.3853 9.94629 11.5063 9.94629ZM1.1499 7.08252C1.1499 4.80469 2.33643 2.63672 4.2334 1.44287C3.99902 2.12402 3.87451 2.87842 3.87451 3.71338C3.87451 8.29102 6.66504 11.0156 11.3379 11.0156C12.0923 11.0156 12.7295 10.9277 13.3374 10.7153C12.2241 12.5537 10.0781 13.6743 7.71973 13.6743C3.91846 13.6743 1.1499 10.9058 1.1499 7.08252Z"
          fill="white"
          fill-opacity="0.85"
        />
      </g>
    </svg>