<!DOCTYPE svg PUBLIC "-//W3C//DTD SVG 1.1//EN"        "http://www.w3.org/Graphics/SVG/1.1/DTD/svg11.dtd"> <svg version="1.1" xmlns="http://www.w3.org/2000/svg" xmlns:xlink="http://www.w3.org/1999/xlink" width="18.4468" height="18.4644">  <g>   <rect height="18.4644" opacity="0" width="15.4468" x="0" y="0"/>   <path d="M3.12744 10.0488C3.3252 10.0269 3.51562 10.0122 3.70605 10.0122C3.90381 10.0122 4.09424 10.0269 4.30664 10.0488L4.30664 3.69873C4.30664 2.97363 4.69482 2.55615 5.45654 2.55615L8.71582 2.55615L8.71582 6.81152C8.71582 7.73438 9.17725 8.18848 10.0928 8.18848L14.2676 8.18848L14.2676 14.7656C14.2676 15.498 13.8794 15.9009 13.1177 15.9009L8.27637 15.9009C8.18115 16.3184 8.02002 16.7212 7.80762 17.0801L13.1763 17.0801C14.6924 17.0801 15.4468 16.311 15.4468 14.7876L15.4468 8.13721C15.4468 7.19238 15.3369 6.78223 14.751 6.18164L10.7153 2.07275C10.1587 1.50146 9.69727 1.37695 8.87695 1.37695L5.39795 1.37695C3.88916 1.37695 3.12744 2.15332 3.12744 3.67676ZM9.82178 6.67236L9.82178 2.7832L14.0405 7.08252L10.2246 7.08252C9.93164 7.08252 9.82178 6.96533 9.82178 6.67236ZM3.7207 18.4644C5.73486 18.4644 7.44141 16.7725 7.44141 14.7437C7.44141 12.7002 5.76416 11.0229 3.7207 11.0229C1.67725 11.0229 0 12.7002 0 14.7437C0 16.7871 1.67725 18.4644 3.7207 18.4644ZM3.7207 17.0728C3.44971 17.0728 3.27393 16.8896 3.27393 16.626L3.27393 15.1904L1.83838 15.1904C1.57471 15.1904 1.3916 15.0146 1.3916 14.7437C1.3916 14.4727 1.57471 14.2896 1.83838 14.2896L3.27393 14.2896L3.27393 12.8613C3.27393 12.5977 3.44971 12.4146 3.7207 12.4146C3.9917 12.4146 4.16748 12.5977 4.16748 12.8613L4.16748 14.2896L5.5957 14.2896C5.8667 14.2896 6.0498 14.4727 6.0498 14.7437C6.0498 15.0146 5.8667 15.1904 5.5957 15.1904L4.16748 15.1904L4.16748 16.626C4.16748 16.8896 3.9917 17.0728 3.7207 17.0728Z" fill="#ffffff" fill-opacity="0.85"/>  </g> </svg>