   <svg
      version="1.1"
      xmlns="http://www.w3.org/2000/svg"
      xmlns:xlink="http://www.w3.org/1999/xlink"
      width="15.8423"
      height="15.9009"
    >
      <g>
        <rect height="15.9009" opacity="0" width="15.8423" x="0" y="0" />
        <path
          d="M7.91748 11.6821C9.95361 11.6821 11.6455 9.99023 11.6455 7.94678C11.6455 5.896 9.95361 4.2041 7.91748 4.2041C5.88135 4.2041 4.18945 5.896 4.18945 7.94678C4.18945 9.99023 5.88135 11.6821 7.91748 11.6821ZM7.91748 10.5615C6.48926 10.5615 5.30273 9.375 5.30273 7.94678C5.30273 6.51123 6.48926 5.32471 7.91748 5.32471C9.3457 5.32471 10.5322 6.51123 10.5322 7.94678C10.5322 9.375 9.3457 10.5615 7.91748 10.5615ZM7.9248 2.84912C8.26904 2.84912 8.55469 2.56348 8.55469 2.21191L8.55469 0.637207C8.55469 0.285645 8.26904 0 7.9248 0C7.57324 0 7.2876 0.285645 7.2876 0.637207L7.2876 2.21191C7.2876 2.56348 7.57324 2.84912 7.9248 2.84912ZM11.5137 4.35059C11.7627 4.59229 12.1655 4.59961 12.4146 4.35059L13.5352 3.22998C13.7769 2.98828 13.7769 2.57812 13.5352 2.3291C13.2935 2.0874 12.8906 2.0874 12.6416 2.3291L11.5137 3.45703C11.272 3.70605 11.272 4.10889 11.5137 4.35059ZM13.0005 7.94678C13.0005 8.29102 13.2935 8.57666 13.6377 8.57666L15.2124 8.57666C15.5566 8.57666 15.8423 8.29102 15.8423 7.94678C15.8423 7.60254 15.5566 7.30957 15.2124 7.30957L13.6377 7.30957C13.2935 7.30957 13.0005 7.60254 13.0005 7.94678ZM11.5137 11.543C11.272 11.792 11.272 12.1948 11.5137 12.4365L12.6416 13.5718C12.8906 13.8062 13.2935 13.7988 13.5352 13.5645C13.7769 13.3154 13.7769 12.9126 13.5352 12.6709L12.4072 11.543C12.1655 11.3086 11.7627 11.3086 11.5137 11.543ZM7.9248 13.0444C7.57324 13.0444 7.2876 13.3301 7.2876 13.6743L7.2876 15.2563C7.2876 15.6006 7.57324 15.8862 7.9248 15.8862C8.26904 15.8862 8.55469 15.6006 8.55469 15.2563L8.55469 13.6743C8.55469 13.3301 8.26904 13.0444 7.9248 13.0444ZM4.32861 11.543C4.07959 11.3086 3.66943 11.3086 3.42773 11.543L2.30713 12.6636C2.06543 12.9053 2.06543 13.3081 2.2998 13.5571C2.5415 13.7915 2.95166 13.7988 3.20068 13.5645L4.32129 12.4365C4.56299 12.1948 4.56299 11.792 4.32861 11.543ZM2.8418 7.94678C2.8418 7.60254 2.54883 7.30957 2.20459 7.30957L0.629883 7.30957C0.285645 7.30957 0 7.60254 0 7.94678C0 8.29102 0.285645 8.57666 0.629883 8.57666L2.20459 8.57666C2.54883 8.57666 2.8418 8.29102 2.8418 7.94678ZM4.32129 4.35059C4.56299 4.11621 4.56299 3.69873 4.32861 3.45703L3.20801 2.3291C2.96631 2.09473 2.55615 2.0874 2.31445 2.3291C2.07275 2.57812 2.07275 2.98828 2.30713 3.22266L3.42773 4.35059C3.66943 4.59229 4.07227 4.59229 4.32129 4.35059Z"
          fill="black"
          fill-opacity="0.85"
        />
      </g>
    </svg>